<?xml version="1.0" standalone="no"?>
<!DOCTYPE svg PUBLIC "-//W3C//DTD SVG 20010904//EN"
 "http://www.w3.org/TR/2001/REC-SVG-20010904/DTD/svg10.dtd">
<svg version="1.0" xmlns="http://www.w3.org/2000/svg"
 width="151.000000pt" height="160.000000pt" viewBox="0 0 151.000000 160.000000"
 preserveAspectRatio="xMidYMid meet">

<g transform="translate(0.000000,160.000000) scale(0.100000,-0.100000)"
fill="#0866FF" stroke="none">
<path d="M690 1365 l0 -156 53 8 c28 4 99 8 157 8 117 0 174 -17 223 -63 59
-56 62 -73 62 -352 l0 -255 -32 -56 c-52 -89 -127 -128 -290 -150 -78 -11
-114 -10 -245 4 -84 10 -163 20 -175 23 l-23 6 0 529 c0 291 -2 529 -5 529 -3
0 -31 -16 -61 -35 -138 -89 -238 -219 -294 -385 -31 -93 -39 -270 -15 -374 44
-200 190 -387 372 -478 125 -63 215 -82 356 -76 194 9 338 71 471 204 157 156
235 375 209 584 -23 178 -83 300 -213 430 -71 72 -101 94 -180 132 -103 51
-211 78 -310 78 l-60 0 0 -155z"/>
<path d="M762 995 c-30 -7 -58 -17 -63 -22 -5 -5 -8 -91 -7 -204 l3 -194 55
-3 c77 -5 114 4 144 35 26 26 26 27 26 180 0 161 -6 188 -43 202 -47 18 -64
19 -115 6z"/>
</g>
</svg>
